<svg width="47" height="50" viewBox="0 0 47 50" fill="none" xmlns="http://www.w3.org/2000/svg">
<path d="M40.625 12.5H46.875V50H6.25V12.5H12.5V9.375H15.625V12.5H37.5V9.375H40.625V12.5ZM43.75 15.625H40.625V18.75H43.75V15.625ZM37.5 15.625H15.625V18.75H37.5V15.625ZM12.5 15.625H9.375V18.75H12.5V15.625ZM9.375 46.875H43.75V21.875H9.375V46.875ZM6.25 9.375V6.25H3.125V40.625H0V3.125H6.25V0H9.375V3.125H31.25V0H34.375V3.125H40.625V6.25H34.375V9.375H31.25V6.25H9.375V9.375H6.25ZM15.625 34.375V31.25H18.75V34.375H15.625ZM21.875 34.375V31.25H25V34.375H21.875ZM28.125 34.375V31.25H31.25V34.375H28.125ZM34.375 34.375V31.25H37.5V34.375H34.375ZM15.625 40.625V37.5H18.75V40.625H15.625ZM21.875 40.625V37.5H25V40.625H21.875ZM28.125 40.625V37.5H31.25V40.625H28.125ZM21.875 28.125V25H25V28.125H21.875ZM28.125 28.125V25H31.25V28.125H28.125ZM34.375 28.125V25H37.5V28.125H34.375Z" fill="#3E3939"/>
</svg>
