<svg width="40" height="36" viewBox="0 0 40 36" fill="none" xmlns="http://www.w3.org/2000/svg">
<path d="M7 13.8333L9.16667 5.16668H30.8333L33 13.8333M34.9933 3.00001C34.5383 1.70001 33.3033 0.833344 31.9167 0.833344H8.08333C6.69667 0.833344 5.46167 1.70001 5.00667 3.00001L0.5 16V33.3333C0.5 33.908 0.728273 34.4591 1.1346 34.8654C1.54093 35.2717 2.09203 35.5 2.66667 35.5H4.83333C5.40797 35.5 5.95907 35.2717 6.3654 34.8654C6.77173 34.4591 7 33.908 7 33.3333V29H33V33.3333C33 33.908 33.2283 34.4591 33.6346 34.8654C34.0409 35.2717 34.592 35.5 35.1667 35.5H37.3333C37.908 35.5 38.4591 35.2717 38.8654 34.8654C39.2717 34.4591 39.5 33.908 39.5 33.3333V16L34.9933 3.00001ZM9.16667 24.6667H4.83333V20.3333H9.16667V24.6667ZM35.1667 24.6667H30.8333V20.3333H35.1667V24.6667ZM24.3333 24.6667H15.6667V20.3333H24.3333V24.6667Z" fill="#3E3939"/>
</svg>
