<svg width="44" height="44" viewBox="0 0 44 44" fill="none" xmlns="http://www.w3.org/2000/svg">
<path d="M22 0.125C9.91992 0.125 0.125 9.91992 0.125 22C0.125 34.0801 9.91992 43.875 22 43.875C34.0801 43.875 43.875 34.0801 43.875 22C43.875 9.91992 34.0801 0.125 22 0.125ZM22 40.1641C11.9707 40.1641 3.83594 32.0293 3.83594 22C3.83594 11.9707 11.9707 3.83594 22 3.83594C32.0293 3.83594 40.1641 11.9707 40.1641 22C40.1641 32.0293 32.0293 40.1641 22 40.1641ZM24.3291 20.8672L23.0889 20.5791V14.0215C24.9443 14.2754 26.0918 15.4375 26.2871 16.8633C26.3115 17.0586 26.4775 17.2002 26.6729 17.2002H28.8652C29.0947 17.2002 29.2754 17 29.2559 16.7705C28.958 13.7285 26.4531 11.7754 23.1084 11.4385V9.8418C23.1084 9.62695 22.9326 9.45117 22.7178 9.45117H21.3457C21.1309 9.45117 20.9551 9.62695 20.9551 9.8418V11.4531C17.498 11.79 14.793 13.6992 14.793 17.2637C14.793 20.5645 17.2246 22.1563 19.7783 22.7666L20.9844 23.0742V30.042C18.8262 29.7539 17.6152 28.6016 17.3662 27.0488C17.3369 26.8633 17.1709 26.7266 16.9805 26.7266H14.7246C14.4951 26.7266 14.3145 26.9219 14.334 27.1514C14.5537 29.8369 16.5898 32.3076 20.9355 32.625V34.1582C20.9355 34.373 21.1113 34.5488 21.3262 34.5488H22.7129C22.9277 34.5488 23.1035 34.373 23.1035 34.1533L23.0938 32.6055C26.917 32.2686 29.6514 30.2227 29.6514 26.5508C29.6465 23.1621 27.4932 21.6484 24.3291 20.8672V20.8672ZM20.9795 20.0762C20.7061 19.998 20.4766 19.9248 20.2471 19.832C18.5967 19.2363 17.8301 18.2744 17.8301 17.0342C17.8301 15.2617 19.1729 14.251 20.9795 14.0215V20.0762ZM23.0889 30.0566V23.5283C23.2402 23.5723 23.377 23.6064 23.5186 23.6357C25.8281 24.3389 26.6045 25.3154 26.6045 26.8145C26.6045 28.7236 25.1689 29.8711 23.0889 30.0566Z" fill="#3E3939"/>
</svg>
