<svg width="45" height="45" viewBox="0 0 45 45" fill="none" xmlns="http://www.w3.org/2000/svg">
<path d="M21 22.5C21 20.7255 20.4141 19.2104 19.2422 17.9548C18.0703 16.6992 16.6562 16.0714 15 16.0714C13.3438 16.0714 11.9297 16.6992 10.7578 17.9548C9.58594 19.2104 9 20.7255 9 22.5C9 24.2746 9.58594 25.7896 10.7578 27.0452C11.9297 28.3008 13.3438 28.9286 15 28.9286C16.6562 28.9286 18.0703 28.3008 19.2422 27.0452C20.4141 25.7896 21 24.2746 21 22.5ZM39 35.3571C39 34.4866 38.7031 33.7333 38.1094 33.0971C37.5156 32.4609 36.8125 32.1429 36 32.1429C35.1875 32.1429 34.4844 32.4609 33.8906 33.0971C33.2969 33.7333 33 34.4866 33 35.3571C33 36.2444 33.293 37.002 33.8789 37.6297C34.4648 38.2575 35.1719 38.5714 36 38.5714C36.8281 38.5714 37.5352 38.2575 38.1211 37.6297C38.707 37.002 39 36.2444 39 35.3571ZM39 9.64287C39 8.77233 38.7031 8.01898 38.1094 7.38282C37.5156 6.74666 36.8125 6.42858 36 6.42858C35.1875 6.42858 34.4844 6.74666 33.8906 7.38282C33.2969 8.01898 33 8.77233 33 9.64287C33 10.5301 33.293 11.2877 33.8789 11.9155C34.4648 12.5433 35.1719 12.8572 36 12.8572C36.8281 12.8572 37.5352 12.5433 38.1211 11.9155C38.707 11.2877 39 10.5301 39 9.64287ZM30 20.2148V24.8605C30 25.0279 29.9453 25.1911 29.8359 25.3502C29.7266 25.5092 29.6016 25.5971 29.4609 25.6138L25.8281 26.2165C25.6562 26.8025 25.4062 27.4386 25.0781 28.125C25.6094 28.9286 26.3125 29.8912 27.1875 31.0128C27.2969 31.197 27.3516 31.3644 27.3516 31.5151C27.3516 31.716 27.2969 31.875 27.1875 31.9922C26.8281 32.4944 26.1836 33.2436 25.2539 34.2397C24.3242 35.2358 23.7109 35.7338 23.4141 35.7338C23.2422 35.7338 23.0781 35.6752 22.9219 35.558L20.2266 33.298C19.6484 33.6161 19.0469 33.8756 18.4219 34.0765C18.25 35.8845 18.0703 37.1819 17.8828 37.9688C17.7734 38.3705 17.5391 38.5714 17.1797 38.5714H12.8203C12.6484 38.5714 12.4922 38.5087 12.3516 38.3831C12.2109 38.2575 12.1328 38.1111 12.1172 37.9436L11.5781 34.1016C11.0469 33.9342 10.4609 33.6747 9.82031 33.3231L7.05469 35.558C6.94531 35.6752 6.78906 35.7338 6.58594 35.7338C6.41406 35.7338 6.25 35.6669 6.09375 35.5329C3.84375 33.3064 2.71875 31.9671 2.71875 31.5151C2.71875 31.3644 2.77344 31.2054 2.88281 31.038C3.03906 30.8036 3.35938 30.3599 3.84375 29.707C4.32812 29.0541 4.69531 28.5435 4.94531 28.1752C4.58594 27.4386 4.3125 26.7522 4.125 26.1161L0.5625 25.5134C0.40625 25.4967 0.273438 25.4171 0.164062 25.2748C0.0546875 25.1325 0 24.9693 0 24.7852V20.1395C0 19.9721 0.0546875 19.8089 0.164062 19.6498C0.273438 19.4908 0.398438 19.4029 0.539062 19.3862L4.17188 18.7835C4.34375 18.1976 4.59375 17.5614 4.92188 16.875C4.39062 16.0714 3.6875 15.1088 2.8125 13.9872C2.70312 13.803 2.64844 13.6356 2.64844 13.4849C2.64844 13.284 2.70312 13.1166 2.8125 12.9827C3.15625 12.4805 3.79688 11.7355 4.73438 10.7478C5.67188 9.76005 6.28906 9.26619 6.58594 9.26619C6.75781 9.26619 6.92188 9.32478 7.07812 9.44197L9.77344 11.702C10.3047 11.4007 10.9062 11.1328 11.5781 10.8984C11.75 9.09041 11.9297 7.80135 12.1172 7.03126C12.2266 6.62947 12.4609 6.42858 12.8203 6.42858H17.1797C17.3516 6.42858 17.5078 6.49136 17.6484 6.61692C17.7891 6.74247 17.8672 6.88896 17.8828 7.05637L18.4219 10.8984C18.9531 11.0659 19.5391 11.3253 20.1797 11.6769L22.9453 9.44197C23.0703 9.32478 23.2266 9.26619 23.4141 9.26619C23.5859 9.26619 23.75 9.33315 23.9062 9.46708C26.1562 11.6936 27.2812 13.0329 27.2812 13.4849C27.2812 13.6189 27.2266 13.7779 27.1172 13.9621C26.9297 14.2299 26.6016 14.6819 26.1328 15.3181C25.6641 15.9542 25.3125 16.4565 25.0781 16.8248C25.4375 17.6284 25.7031 18.3147 25.875 18.8839L29.4375 19.4615C29.5938 19.495 29.7266 19.5829 29.8359 19.7252C29.9453 19.8675 30 20.0307 30 20.2148ZM45 33.5993V37.115C45 37.3828 43.8359 37.6423 41.5078 37.8934C41.3203 38.3454 41.0859 38.7807 40.8047 39.1992C41.6016 41.091 42 42.2461 42 42.6646C42 42.7316 41.9688 42.7902 41.9062 42.8404C40 44.029 39.0312 44.6233 39 44.6233C38.875 44.6233 38.5156 44.2299 37.9219 43.4431C37.3281 42.6563 36.9219 42.0871 36.7031 41.7355C36.3906 41.769 36.1562 41.7857 36 41.7857C35.8438 41.7857 35.6094 41.769 35.2969 41.7355C35.0781 42.0871 34.6719 42.6563 34.0781 43.4431C33.4844 44.2299 33.125 44.6233 33 44.6233C32.9688 44.6233 32 44.029 30.0938 42.8404C30.0312 42.7902 30 42.7316 30 42.6646C30 42.2461 30.3984 41.091 31.1953 39.1992C30.9141 38.7807 30.6797 38.3454 30.4922 37.8934C28.1641 37.6423 27 37.3828 27 37.115V33.5993C27 33.3315 28.1641 33.072 30.4922 32.8209C30.6953 32.3354 30.9297 31.9001 31.1953 31.5151C30.3984 29.6233 30 28.4682 30 28.0497C30 27.9827 30.0312 27.9241 30.0938 27.8739C30.1562 27.8404 30.4297 27.673 30.9141 27.3717C31.3984 27.0703 31.8594 26.7857 32.2969 26.5179C32.7344 26.25 32.9688 26.1161 33 26.1161C33.125 26.1161 33.4844 26.5053 34.0781 27.2838C34.6719 28.0622 35.0781 28.6272 35.2969 28.9788C35.6094 28.9453 35.8438 28.9286 36 28.9286C36.1562 28.9286 36.3906 28.9453 36.7031 28.9788C37.5 27.7902 38.2188 26.8527 38.8594 26.1663L39 26.1161C39.0625 26.1161 40.0312 26.702 41.9062 27.8739C41.9688 27.9241 42 27.9827 42 28.0497C42 28.4682 41.6016 29.6233 40.8047 31.5151C41.0703 31.9001 41.3047 32.3354 41.5078 32.8209C43.8359 33.072 45 33.3315 45 33.5993ZM45 7.88505V11.4007C45 11.6685 43.8359 11.928 41.5078 12.1791C41.3203 12.6311 41.0859 13.0664 40.8047 13.4849C41.6016 15.3767 42 16.5318 42 16.9503C42 17.0173 41.9688 17.0759 41.9062 17.1261C40 18.3147 39.0312 18.909 39 18.909C38.875 18.909 38.5156 18.5156 37.9219 17.7288C37.3281 16.942 36.9219 16.3728 36.7031 16.0212C36.3906 16.0547 36.1562 16.0714 36 16.0714C35.8438 16.0714 35.6094 16.0547 35.2969 16.0212C35.0781 16.3728 34.6719 16.942 34.0781 17.7288C33.4844 18.5156 33.125 18.909 33 18.909C32.9688 18.909 32 18.3147 30.0938 17.1261C30.0312 17.0759 30 17.0173 30 16.9503C30 16.5318 30.3984 15.3767 31.1953 13.4849C30.9141 13.0664 30.6797 12.6311 30.4922 12.1791C28.1641 11.928 27 11.6685 27 11.4007V7.88505C27 7.6172 28.1641 7.35771 30.4922 7.10659C30.6953 6.6211 30.9297 6.18583 31.1953 5.80079C30.3984 3.90905 30 2.75391 30 2.33539C30 2.26842 30.0312 2.20983 30.0938 2.15961C30.1562 2.12612 30.4297 1.95871 30.9141 1.65737C31.3984 1.35604 31.8594 1.07144 32.2969 0.80358C32.7344 0.535723 32.9688 0.401794 33 0.401794C33.125 0.401794 33.4844 0.791024 34.0781 1.56948C34.6719 2.34794 35.0781 2.91295 35.2969 3.26452C35.6094 3.23104 35.8438 3.21429 36 3.21429C36.1562 3.21429 36.3906 3.23104 36.7031 3.26452C37.5 2.0759 38.2188 1.1384 38.8594 0.452018L39 0.401794C39.0625 0.401794 40.0312 0.987732 41.9062 2.15961C41.9688 2.20983 42 2.26842 42 2.33539C42 2.75391 41.6016 3.90905 40.8047 5.80079C41.0703 6.18583 41.3047 6.6211 41.5078 7.10659C43.8359 7.35771 45 7.6172 45 7.88505Z" fill="#3E3939"/>
</svg>
