<svg width="20" height="32" viewBox="0 0 20 32" fill="none" xmlns="http://www.w3.org/2000/svg">
<path d="M4.94601 0.704529C5.00581 0.501076 5.12991 0.322471 5.29973 0.195462C5.46955 0.0684535 5.67594 -0.000124002 5.888 1.68325e-07H13.7379C13.8933 0.000118129 14.0464 0.0371418 14.1847 0.108023C14.323 0.178905 14.4425 0.281617 14.5333 0.407704C14.6241 0.533792 14.6837 0.679649 14.7072 0.833268C14.7306 0.986887 14.7172 1.14387 14.6681 1.29131L11.1749 11.7748H18.6441C18.8278 11.7747 19.0079 11.8262 19.1639 11.9234C19.3198 12.0206 19.4453 12.1597 19.5261 12.3247C19.6069 12.4897 19.6397 12.6742 19.6208 12.8569C19.6019 13.0397 19.5321 13.2135 19.4193 13.3586L5.68194 31.0208C5.54121 31.2026 5.34111 31.3293 5.11655 31.3786C4.89199 31.4279 4.65724 31.3969 4.45327 31.2908C4.24929 31.1847 4.08904 31.0104 4.00047 30.7982C3.91191 30.586 3.90067 30.3495 3.9687 30.1299L7.50311 18.6435H0.981812C0.829258 18.6436 0.678785 18.6081 0.542343 18.5399C0.4059 18.4716 0.287247 18.3725 0.195807 18.2504C0.104366 18.1283 0.0426568 17.9866 0.0155799 17.8364C-0.0114971 17.6863 -0.00319605 17.5319 0.0398241 17.3856L4.94601 0.704529Z" fill="black"/>
</svg>
