<svg width="34" height="42" viewBox="0 0 34 42" fill="none" xmlns="http://www.w3.org/2000/svg">
<path d="M17.2396 35.4167C17.6562 35.3819 18.0125 35.2174 18.3083 34.9229C18.6028 34.6271 18.75 34.2708 18.75 33.8542C18.75 33.3681 18.5937 32.9778 18.2812 32.6833C17.9687 32.3875 17.5694 32.2569 17.0833 32.2917C15.6597 32.3958 14.1493 32.0056 12.5521 31.1208C10.9549 30.2347 9.94792 28.6285 9.53125 26.3021C9.4618 25.9201 9.27917 25.6076 8.98333 25.3646C8.68889 25.1215 8.35069 25 7.96875 25C7.48264 25 7.08333 25.1819 6.77083 25.5458C6.45833 25.9111 6.35417 26.3368 6.45833 26.8229C7.04861 29.9826 8.4375 32.2396 10.625 33.5938C12.8125 34.9479 15.0174 35.5556 17.2396 35.4167V35.4167ZM16.6667 41.6667C11.9097 41.6667 7.94306 40.0347 4.76667 36.7708C1.58889 33.5069 0 29.4444 0 24.5833C0 21.1111 1.38056 17.3354 4.14167 13.2563C6.90139 9.17569 11.0764 4.75694 16.6667 0C22.2569 4.75694 26.4326 9.17569 29.1937 13.2563C31.9535 17.3354 33.3333 21.1111 33.3333 24.5833C33.3333 29.4444 31.7444 33.5069 28.5667 36.7708C25.3903 40.0347 21.4236 41.6667 16.6667 41.6667Z" fill="black"/>
</svg>
