<svg width="42" height="50" viewBox="0 0 42 50" fill="none" xmlns="http://www.w3.org/2000/svg">
<path d="M14.625 34.5C15.2291 35.1042 16.0416 35.4167 16.8333 35.4167C17.625 35.4167 18.4375 35.1042 19.0416 34.5L30.5 23.0417C31.7291 21.8334 31.7291 19.8542 30.5 18.625L13.3333 1.45835C13.1404 1.26547 12.9114 1.11247 12.6594 1.00809C12.4074 0.903702 12.1373 0.849976 11.8645 0.849976C11.3137 0.849976 10.7853 1.06882 10.3958 1.45835C10.0063 1.84789 9.78742 2.37621 9.78742 2.9271C9.78742 3.47799 10.0063 4.00631 10.3958 4.39585L13.8958 7.89585L3.16663 18.625C2.87436 18.9137 2.6423 19.2576 2.48393 19.6367C2.32555 20.0158 2.244 20.4225 2.244 20.8334C2.244 21.2442 2.32555 21.6509 2.48393 22.03C2.6423 22.4091 2.87436 22.753 3.16663 23.0417L14.625 34.5ZM16.8333 10.8542L26.8125 20.8334H6.85413L16.8333 10.8542ZM35.5833 35.4167C37.875 35.4167 39.75 33.5417 39.75 31.25C39.75 28.4792 35.5833 23.9584 35.5833 23.9584C35.5833 23.9584 31.4166 28.4792 31.4166 31.25C31.4166 33.5417 33.2916 35.4167 35.5833 35.4167ZM37.6666 41.6667H4.33329C2.04163 41.6667 0.166626 43.5417 0.166626 45.8333C0.166626 48.125 2.04163 50 4.33329 50H37.6666C39.9583 50 41.8333 48.125 41.8333 45.8333C41.8333 43.5417 39.9583 41.6667 37.6666 41.6667Z" fill="#3E3939"/>
</svg>
