<svg width="44" height="34" viewBox="0 0 44 34" fill="none" xmlns="http://www.w3.org/2000/svg">
<path d="M30.6666 28.8333V33.1667H0.333252V28.8333C0.333252 28.8333 0.333252 20.1667 15.4999 20.1667C30.6666 20.1667 30.6666 28.8333 30.6666 28.8333ZM23.0833 8.25001C23.0833 6.75017 22.6385 5.28401 21.8052 4.03694C20.972 2.78987 19.7876 1.81789 18.4019 1.24393C17.0163 0.669962 15.4915 0.519786 14.0205 0.812391C12.5495 1.105 11.1982 1.82724 10.1377 2.88779C9.07714 3.94833 8.3549 5.29956 8.0623 6.77058C7.76969 8.2416 7.91987 9.76635 8.49383 11.152C9.0678 12.5377 10.0398 13.7221 11.2868 14.5553C12.5339 15.3886 14.0001 15.8333 15.4999 15.8333C17.5111 15.8333 19.44 15.0344 20.8621 13.6122C22.2843 12.1901 23.0833 10.2612 23.0833 8.25001ZM30.5366 20.1667C31.8685 21.1975 32.9584 22.5076 33.7295 24.0049C34.5007 25.5023 34.9343 27.1504 34.9999 28.8333V33.1667H43.6666V28.8333C43.6666 28.8333 43.6666 20.9683 30.5366 20.1667ZM28.4999 0.666679C27.0086 0.658375 25.55 1.10425 24.3183 1.94501C25.6344 3.78394 26.342 5.98863 26.342 8.25001C26.342 10.5114 25.6344 12.7161 24.3183 14.555C25.55 15.3958 27.0086 15.8417 28.4999 15.8333C30.5111 15.8333 32.44 15.0344 33.8621 13.6122C35.2843 12.1901 36.0833 10.2612 36.0833 8.25001C36.0833 6.23879 35.2843 4.30994 33.8621 2.88779C32.44 1.46564 30.5111 0.666679 28.4999 0.666679Z" fill="#3E3939"/>
</svg>
