<svg width="40" height="37" viewBox="0 0 40 37" fill="none" xmlns="http://www.w3.org/2000/svg">
<path d="M13.75 0.25C14.0815 0.25 14.3995 0.381696 14.6339 0.616117C14.8683 0.850537 15 1.16848 15 1.5V4H20V1.5C20 1.16848 20.1317 0.850537 20.3661 0.616117C20.6005 0.381696 20.9185 0.25 21.25 0.25C21.5815 0.25 21.8995 0.381696 22.1339 0.616117C22.3683 0.850537 22.5 1.16848 22.5 1.5V4H27.9775C28.4417 4.00025 28.8966 4.12971 29.2913 4.37388C29.6861 4.61805 30.005 4.9673 30.2125 5.3825L32.025 9H35C36.3261 9 37.5979 9.52678 38.5355 10.4645C39.4732 11.4021 40 12.6739 40 14V26.5C40 27.8261 39.4732 29.0979 38.5355 30.0355C37.5979 30.9732 36.3261 31.5 35 31.5H32.0225L30.2125 35.1175C30.005 35.5327 29.6861 35.882 29.2913 36.1261C28.8966 36.3703 28.4417 36.4998 27.9775 36.5H14.2675C13.6045 36.4999 12.9687 36.2364 12.5 35.7675L6.465 29.7325C5.52725 28.795 5.00028 27.5235 5 26.1975V19H2.5V25.25C2.5 25.5815 2.3683 25.8995 2.13388 26.1339C1.89946 26.3683 1.58152 26.5 1.25 26.5C0.918479 26.5 0.600537 26.3683 0.366117 26.1339C0.131696 25.8995 0 25.5815 0 25.25V10.25C0 9.91848 0.131696 9.60054 0.366117 9.36612C0.600537 9.1317 0.918479 9 1.25 9C1.58152 9 1.89946 9.1317 2.13388 9.36612C2.3683 9.60054 2.5 9.91848 2.5 10.25V16.5H5V9C5 7.67392 5.52678 6.40215 6.46447 5.46447C7.40215 4.52678 8.67392 4 10 4H12.5V1.5C12.5 1.16848 12.6317 0.850537 12.8661 0.616117C13.1005 0.381696 13.4185 0.25 13.75 0.25ZM13.75 11.5C13.4185 11.5 13.1005 11.6317 12.8661 11.8661C12.6317 12.1005 12.5 12.4185 12.5 12.75V19C12.5 20.3261 13.0268 21.5979 13.9645 22.5355C14.9021 23.4732 16.1739 24 17.5 24H31.25C31.5815 24 31.8995 23.8683 32.1339 23.6339C32.3683 23.3995 32.5 23.0815 32.5 22.75C32.5 22.4185 32.3683 22.1005 32.1339 21.8661C31.8995 21.6317 31.5815 21.5 31.25 21.5H22.5V12.75C22.5 12.4185 22.3683 12.1005 22.1339 11.8661C21.8995 11.6317 21.5815 11.5 21.25 11.5C20.9185 11.5 20.6005 11.6317 20.3661 11.8661C20.1317 12.1005 20 12.4185 20 12.75V21.5H17.5C16.837 21.5 16.2011 21.2366 15.7322 20.7678C15.2634 20.2989 15 19.663 15 19V12.75C15 12.4185 14.8683 12.1005 14.6339 11.8661C14.3995 11.6317 14.0815 11.5 13.75 11.5Z" fill="#3E3939"/>
</svg>
